<svg version="1.1" id="Layer_1" xmlns="http://www.w3.org/2000/svg" xmlns:xlink="http://www.w3.org/1999/xlink" x="0px" y="0px" viewBox="0 0 400 300" style="width: 188px;" xml:space="preserve" data-imageid="scientist-4" imageName="Scientist" class="illustrations_image">
<style type="text/css">
	.st0_scientist-4{fill:#FFFFFF;}
	.st1_scientist-4{fill:#D1D3D4;}
	.st2_scientist-4{fill:#231F20;}
	.st3_scientist-4{fill:#68E1FD;}
</style>
<g id="Table_scientist-4">
	<rect x="78.2" y="170.6" class="st0_scientist-4" width="225.9" height="88"/>
	<path class="st1_scientist-4" d="M304,259.1H78.2c-0.3,0-0.5-0.2-0.5-0.5v-88c0-0.3,0.2-0.5,0.5-0.5H304c0.3,0,0.5,0.2,0.5,0.5v88&#10;&#9;&#9;C304.5,258.9,304.3,259.1,304,259.1z M78.6,258.1h224.9v-87H78.7L78.6,258.1z"/>
	<rect x="72.8" y="159" class="st0_scientist-4" width="236.5" height="11.5"/>
	<path class="st1_scientist-4" d="M309.3,171H72.8c-0.3,0-0.5-0.2-0.5-0.5V159c0-0.3,0.2-0.5,0.5-0.5h236.5c0.3,0,0.5,0.2,0.5,0.5v11.5&#10;&#9;&#9;C309.8,170.8,309.6,171,309.3,171z M73.3,170h235.5v-10.5H73.3L73.3,170z"/>
</g>
<g id="chemical_Apparatus_scientist-4">
	<path class="st0_scientist-4" d="M168.8,154.8l-7.7-13v-21.7h0.2c0.4,0,0.7-0.3,0.7-0.7c0,0,0,0,0,0v-0.1c0-0.4-0.3-0.7-0.7-0.7c0,0,0,0,0,0&#10;&#9;&#9;h-4.7c-0.4,0-0.7,0.3-0.7,0.7c0,0,0,0,0,0v0.1c0,0.4,0.3,0.7,0.7,0.7c0,0,0,0,0,0h0.2v21.7l-7.7,13c-0.8,1.3-0.4,3,1,3.8&#10;&#9;&#9;c0.4,0.3,0.9,0.4,1.4,0.4h14.9c1.5,0,2.8-1.3,2.8-2.8C169.2,155.7,169.1,155.2,168.8,154.8z"/>
	<path class="st1_scientist-4" d="M166.4,159.5h-14.9c-1.8,0-3.3-1.5-3.3-3.3c0-0.6,0.2-1.2,0.5-1.7l7.7-12.9v-21.1c-0.5-0.1-0.9-0.6-0.9-1.2&#10;&#9;&#9;c0-0.7,0.5-1.2,1.1-1.3c0,0,0,0,0,0h4.7c0.7,0,1.2,0.5,1.2,1.2c0,0.6-0.4,1.1-0.9,1.2v21.1l7.7,12.9l0,0c0.9,1.6,0.5,3.6-1.1,4.5&#10;&#9;&#9;C167.6,159.4,167,159.5,166.4,159.5L166.4,159.5z M156.6,119.1c-0.1,0-0.2,0.1-0.2,0.2c0,0.2,0.1,0.3,0.2,0.3h0.2&#10;&#9;&#9;c0.3,0,0.5,0.2,0.5,0.5v21.7c0,0.1,0,0.2-0.1,0.3l-7.7,13c-0.6,1.1-0.3,2.5,0.8,3.1c0.4,0.2,0.8,0.3,1.2,0.3h14.9&#10;&#9;&#9;c1.3,0,2.3-1,2.3-2.3c0-0.4-0.1-0.8-0.3-1.2l-7.7-13c0-0.1-0.1-0.2-0.1-0.3v-21.7c0-0.3,0.2-0.5,0.5-0.5h0.2c0.1,0,0.2-0.1,0.2-0.2&#10;&#9;&#9;c0-0.2-0.1-0.3-0.2-0.3H156.6z"/>
	<path class="st1_scientist-4" d="M154.5,150l-2.5,4.2c-0.5,0.8-0.2,1.9,0.6,2.4c0.3,0.2,0.6,0.2,0.9,0.2h10.9c1,0,1.8-0.8,1.8-1.8&#10;&#9;&#9;c0-0.3-0.1-0.6-0.2-0.9l-2.4-4.2H154.5z"/>
	<path class="st0_scientist-4" d="M134.8,130.1v-18h0.4c0.7,0,1.2-0.5,1.2-1.2c0,0,0,0,0,0v-0.2c0-0.7-0.5-1.2-1.2-1.2c0,0,0,0,0,0H127&#10;&#9;&#9;c-0.7,0-1.2,0.5-1.2,1.2c0,0,0,0,0,0v0.2c0,0.7,0.5,1.2,1.2,1.2c0,0,0,0,0,0h0.4v18c-8.7,2-14.1,10.7-12.1,19.3&#10;&#9;&#9;c0.8,3.6,2.9,6.8,5.8,9h20c7-5.5,8.2-15.6,2.8-22.6C141.6,132.9,138.4,130.9,134.8,130.1L134.8,130.1z"/>
	<path class="st1_scientist-4" d="M141.1,159h-19.9c-0.1,0-0.2,0-0.3-0.1c-7.2-5.6-8.5-16.1-2.9-23.3c2.3-2.9,5.4-5,9-5.9v-17.1&#10;&#9;&#9;c-0.9,0-1.6-0.8-1.6-1.7v-0.2c0-0.9,0.8-1.7,1.7-1.7h8.2c0.9,0,1.7,0.8,1.7,1.7v0.2c0,0.9-0.7,1.7-1.6,1.7v17.1&#10;&#9;&#9;c8.9,2.3,14.2,11.3,11.9,20.2c-0.9,3.5-3,6.7-5.8,8.9C141.3,158.9,141.2,159,141.1,159z M121.4,158h19.6c6.7-5.4,7.8-15.2,2.4-21.9&#10;&#9;&#9;c-2.2-2.7-5.2-4.7-8.6-5.4c-0.2-0.1-0.4-0.3-0.4-0.5v-18c0-0.3,0.2-0.5,0.5-0.5h0.4c0.4,0,0.7-0.3,0.7-0.7c0,0,0,0,0,0v-0.2&#10;&#9;&#9;c0-0.4-0.3-0.7-0.7-0.7c0,0,0,0,0,0H127c-0.4,0-0.7,0.3-0.7,0.7v0.2c0,0.4,0.3,0.7,0.7,0.7h0.4c0.3,0,0.5,0.2,0.5,0.5v18&#10;&#9;&#9;c0,0.2-0.2,0.4-0.4,0.5c-8.4,2-13.6,10.4-11.6,18.8C116.7,152.8,118.6,155.8,121.4,158z"/>
	<path class="st0_scientist-4" d="M112.6,153.3l-10.4-17.5v-20.2h0.3c0.5,0,0.9-0.4,0.9-0.9v-0.1c0-0.5-0.4-0.9-0.9-0.9h-6.4&#10;&#9;&#9;c-0.5,0-0.9,0.4-0.9,0.9v0.1c0,0.5,0.4,0.9,0.9,0.9h0.3v20.2l-10.4,17.5c-1.1,1.8-0.5,4.1,1.3,5.1c0.6,0.3,1.2,0.5,1.9,0.5h20&#10;&#9;&#9;c2.1,0,3.8-1.7,3.8-3.7C113.1,154.6,112.9,153.9,112.6,153.3z"/>
	<path class="st1_scientist-4" d="M109.3,159.5h-20c-2.3,0-4.3-1.9-4.3-4.2c0-0.8,0.2-1.5,0.6-2.2L96,135.7v-19.6c-0.7-0.1-1.3-0.7-1.3-1.4v-0.1&#10;&#9;&#9;c0-0.8,0.6-1.4,1.4-1.4h6.3c0.8,0,1.4,0.6,1.4,1.4v0.1c0,0.7-0.5,1.3-1.2,1.4v19.6l10.3,17.4l0,0c1.2,2,0.5,4.6-1.5,5.8&#10;&#9;&#9;C110.9,159.3,110.1,159.5,109.3,159.5L109.3,159.5z M96.1,114.2c-0.2,0-0.4,0.2-0.4,0.4v0.1c0,0.2,0.2,0.4,0.4,0.4h0.3&#10;&#9;&#9;c0.3,0,0.5,0.2,0.5,0.5v20.2c0,0.1,0,0.2-0.1,0.2l-10.4,17.5c-0.9,1.5-0.4,3.5,1.1,4.5c0.5,0.3,1.1,0.5,1.7,0.5h20&#10;&#9;&#9;c1.8,0,3.2-1.5,3.2-3.3c0-0.6-0.2-1.2-0.5-1.7l-10.4-17.5c0-0.1-0.1-0.2-0.1-0.2v-20.2c0-0.3,0.2-0.5,0.5-0.5h0.3&#10;&#9;&#9;c0.2,0,0.4-0.2,0.4-0.4v-0.1c0-0.2-0.2-0.4-0.4-0.4H96.1z"/>
	<path class="st1_scientist-4" d="M118.2,143c-0.2,0.9-0.3,1.8-0.3,2.8c0,4,1.8,7.8,5,10.3h16.4c3.9-3.1,5.7-8.2,4.6-13.1H118.2z"/>
	<path class="st1_scientist-4" d="M93.3,146.9l-3.3,5.6c-0.7,1.1-0.3,2.6,0.8,3.3c0.4,0.2,0.8,0.3,1.2,0.3h14.6c1.3,0,2.4-1.1,2.3-2.4&#10;&#9;&#9;c0-0.4-0.1-0.8-0.3-1.2l-3.3-5.6H93.3z"/>
</g>
<g id="Background_scientist-4">
	<rect x="75.3" y="40.7" class="st0_scientist-4" width="108.2" height="60"/>
	<path class="st1_scientist-4" d="M183.6,101.2H75.3c-0.3,0-0.5-0.2-0.5-0.5v-60c0-0.3,0.2-0.5,0.5-0.5h108.2c0.3,0,0.5,0.2,0.5,0.5v60&#10;&#9;&#9;C184.1,101,183.8,101.2,183.6,101.2z M75.8,100.2h107.2v-59H75.8L75.8,100.2z"/>
	<path class="st1_scientist-4" d="M307.3,88.3h-40.6c-0.3,0-0.5-0.2-0.5-0.5V52.7c0-0.3,0.2-0.5,0.5-0.5h40.6c0.3,0,0.5,0.2,0.5,0.5v35.2&#10;&#9;&#9;C307.8,88.1,307.6,88.3,307.3,88.3z M267.2,87.3h39.6V53.2h-39.6L267.2,87.3z"/>
	<path class="st1_scientist-4" d="M298.2,70.8H289c-0.3,0-0.5-0.2-0.5-0.5s0.2-0.5,0.5-0.5h9.2c0.3,0,0.5,0.2,0.5,0.5&#10;&#9;&#9;C298.7,70.5,298.5,70.8,298.2,70.8z"/>
	<path class="st1_scientist-4" d="M284.4,68.8h-4.2c-0.3,0-0.5-0.2-0.5-0.5c0-0.3,0.2-0.5,0.5-0.5h4.2c0.3,0,0.5,0.2,0.5,0.5&#10;&#9;&#9;C284.9,68.5,284.7,68.8,284.4,68.8z"/>
	<path class="st1_scientist-4" d="M284,71.1h-4c-0.3,0-0.5-0.2-0.5-0.5c0-0.3,0.2-0.5,0.5-0.5h4c0.3,0,0.5,0.2,0.5,0.5S284.3,71.1,284,71.1z"/>
	<path class="st1_scientist-4" d="M291.5,66.2c-0.1,0-0.1,0-0.2,0c-0.2-0.1-0.3-0.4-0.2-0.7l1.8-3.8c0.1-0.2,0.5-0.3,0.7-0.2&#10;&#9;&#9;c0.1,0,0.1,0.1,0.2,0.2l1.6,3.3l2.4-1.8c0.2-0.2,0.5-0.1,0.7,0.1c0.2,0.2,0.1,0.5-0.1,0.7l0,0l-2.9,2.2c-0.1,0.1-0.3,0.1-0.4,0.1&#10;&#9;&#9;c-0.1,0-0.3-0.1-0.3-0.3l-1.4-3l-1.4,2.9C291.9,66.1,291.7,66.2,291.5,66.2z"/>
	<path class="st1_scientist-4" d="M290.5,77.9c-0.1,0-0.2,0-0.3-0.1c-0.2-0.2-0.3-0.5-0.1-0.7l1.1-1.7c0.2-0.5,0.7-0.8,1.2-0.8&#10;&#9;&#9;c0.8,0.1,0.9,0.9,1,1.3c0,0.1,0,0.1,0,0.2l0.1-0.1c0.2-0.4,0.5-0.7,0.8-0.9c0.5-0.2,1-0.2,1.5-0.1c0.5,0.1,0.7,0.1,0.9,0&#10;&#9;&#9;c0.2-0.2,0.5-0.1,0.7,0.1c0.2,0.2,0.1,0.5,0,0.7c-0.5,0.4-1.1,0.5-1.7,0.2c-0.3-0.1-0.6-0.1-0.9,0c-0.2,0.1-0.3,0.3-0.4,0.5&#10;&#9;&#9;c-0.2,0.4-0.5,0.7-0.8,0.9c-0.2,0.1-0.4,0.1-0.5-0.1c-0.4-0.3-0.6-0.8-0.5-1.3c0-0.2,0-0.3-0.1-0.5c0,0-0.1,0.1-0.2,0.3l-1.1,1.7&#10;&#9;&#9;C290.8,77.9,290.6,77.9,290.5,77.9z"/>
	<path class="st1_scientist-4" d="M271.4,70.9c-0.1,0-0.1,0-0.2,0c-0.3-0.1-0.4-0.4-0.3-0.6c0,0,0,0,0,0c0.1-0.2,0.1-0.5,0-0.8&#10;&#9;&#9;c0-0.2,0-0.3,0-0.4c0-0.5,0.1-0.9,0.4-1.2c0.2-0.2,0.5-0.4,0.8-0.4c0.5,0,1,0.4,1.3,0.8c0,0.1,0.1,0.1,0.1,0.2&#10;&#9;&#9;c0.1,0.1,0.2,0.1,0.3,0.1c0.1-0.2,0.4-0.3,0.7-0.2c0.1,0.1,0.2,0.2,0.2,0.3c0.2,0.5,0.4,0.8,0.5,0.7c0.1-0.1,0.3-0.2,0.4-0.3&#10;&#9;&#9;l0.2-0.2c0.4-0.5,1.1-0.5,1.6-0.1c0.2,0.2,0.2,0.5,0,0.7c0,0,0,0,0,0c-0.2,0.2-0.5,0.2-0.7,0c0,0,0,0,0,0c0,0-0.1,0.1-0.2,0.2&#10;&#9;&#9;l-0.1,0.1c-0.2,0.3-0.6,0.5-0.9,0.5c-0.6,0-1.1-0.3-1.4-0.8c-0.5,0.1-1-0.1-1.3-0.5l-0.2-0.2c-0.1-0.2-0.3-0.4-0.4-0.4&#10;&#9;&#9;c-0.1,0.2-0.2,0.4-0.2,0.6c0,0.1,0,0.2,0,0.4c0.1,0.4,0.1,0.9,0,1.3C271.8,70.9,271.6,71,271.4,70.9z"/>
	<path class="st1_scientist-4" d="M107.1,56.2c-2.1-0.1-4.1-0.3-6.2-0.7c-1.2-0.1-2.4-0.5-3.4-1.1c-0.5,0.7-1.2,1.2-2.1,1.4&#10;&#9;&#9;c-1,0.3-2.2,0.1-3.1-0.5c-0.2-0.2-0.4-0.3-0.6-0.5c-0.3-0.2-0.5-0.5-0.9-0.6c-0.8-0.3-1.8,0.2-3,1.5c-0.2,0.2-0.5,0.3-0.7,0.1&#10;&#9;&#9;c-0.2-0.2-0.3-0.5-0.1-0.7c0,0,0.1-0.1,0.1-0.1c0.6-0.6,2.3-2.5,4.1-1.7c0.4,0.2,0.8,0.5,1.2,0.8c0.2,0.1,0.3,0.3,0.5,0.4&#10;&#9;&#9;c1.3,0.8,3,0.4,3.9-0.9c0-0.1,0.1-0.2,0.1-0.2c0.1-0.1,0.2-0.3,0.4-0.3c0.2,0,0.3,0,0.4,0.1c1,0.7,2.2,1.2,3.4,1.3&#10;&#9;&#9;c4.4,0.7,8.3,1.2,11.6-0.5c0.2-0.1,0.4-0.2,0.6-0.3c0.8-0.5,1.6-0.9,2.5-1c0.8,0,1.6,0.2,2.4,0.5l5.2,1.9c0.3,0.1,0.4,0.4,0.3,0.6&#10;&#9;&#9;c-0.1,0.3-0.4,0.4-0.7,0.3l-5.2-1.9c-0.6-0.3-1.3-0.4-2-0.5c-0.8,0.1-1.5,0.4-2.1,0.8c-0.2,0.1-0.4,0.2-0.6,0.4&#10;&#9;&#9;C111.3,55.8,109.2,56.3,107.1,56.2z"/>
	<path class="st1_scientist-4" d="M96.4,68.3c-1.3,0-2.2-1-3-1.8c-0.3-0.3-0.6-0.7-0.9-0.9c-1.8-1.4-4.4-1.1-5.9,0.6c-0.2,0.2-0.5,0.3-0.7,0.1&#10;&#9;&#9;c-0.2-0.2-0.2-0.5-0.1-0.7c1.9-2.1,5.1-2.5,7.3-0.7c0.4,0.3,0.7,0.6,1,1c0.7,0.8,1.4,1.5,2.3,1.5c0.7-0.1,1.3-0.4,1.8-0.9&#10;&#9;&#9;c1.6-1.4,3.7-1.9,5.8-1.3c0.7,0.1,1.5,0.1,2.2,0.1c0.7-0.1,1.4-0.2,2.1-0.3c0.8-0.2,1.5-0.3,2.3-0.4c1.8,0,3.6,0.3,5.3,0.9l1.2,0.4&#10;&#9;&#9;c2.6,0.7,4.6,0.7,6-0.1c0.2-0.1,0.5-0.1,0.7,0.2c0.1,0.2,0.1,0.5-0.2,0.7c0,0,0,0-0.1,0c-2.2,1.2-4.9,0.7-6.8,0.2l-1.2-0.4&#10;&#9;&#9;c-1.6-0.6-3.3-0.9-5-0.9c-0.7,0.1-1.5,0.2-2.2,0.3c-1.5,0.4-3,0.5-4.5,0.3c-1.4-0.2-2.8-0.1-4.1,0.5c-0.3,0.2-0.6,0.4-0.9,0.6&#10;&#9;&#9;C98.2,67.8,97.3,68.2,96.4,68.3L96.4,68.3z"/>
	<path class="st1_scientist-4" d="M88.7,89.2c-0.1,0-0.2,0-0.2,0C88,89,87.7,88.5,87.7,88l-0.4-11.4c0-0.3,0.2-0.5,0.5-0.5s0.5,0.2,0.5,0.5&#10;&#9;&#9;L88.7,88c0,0.1,0,0.1,0.1,0.2c0.3-0.1,0.5,0.1,0.6,0.4c0,0.2,0,0.3-0.1,0.4C89.2,89.1,89,89.2,88.7,89.2z"/>
	<path class="st1_scientist-4" d="M105,89.6L105,89.6c-5.8-0.3-11.7-0.3-17.5,0c-0.3,0-0.5-0.2-0.5-0.4c0,0,0,0,0,0c0-0.3,0.2-0.5,0.5-0.5&#10;&#9;&#9;c0,0,0,0,0,0c5.9-0.3,11.8-0.3,17.6,0c0.3,0,0.5,0.2,0.5,0.5c0,0,0,0,0,0C105.5,89.3,105.3,89.6,105,89.6z"/>
	<path class="st1_scientist-4" d="M90.8,87.8c-0.1,0-0.2,0-0.3-0.1c-0.2-0.2-0.3-0.5-0.1-0.7c2.5-3.3,5.5-6.2,8.7-8.7c0.2-0.2,0.5-0.2,0.7,0&#10;&#9;&#9;c0.2,0.2,0.2,0.5,0,0.7c0,0,0,0,0,0c-3.2,2.5-6.1,5.3-8.6,8.5C91.1,87.7,90.9,87.7,90.8,87.8z"/>
	<path class="st1_scientist-4" d="M114.9,83.5c-0.1,0-0.1,0-0.2,0c-0.2-0.1-0.4-0.4-0.3-0.7l1.1-2.6c0.1-0.3,0.4-0.4,0.6-0.3&#10;&#9;&#9;c0.1,0,0.2,0.1,0.3,0.2c0.8,1.2,2.4,1.5,3.6,0.7c0.2-0.1,0.3-0.2,0.4-0.4c0.1-0.2,0.4-0.2,0.6-0.2c0.2,0.1,0.3,0.3,0.3,0.5&#10;&#9;&#9;c0,0.6,0.6,1.1,1.1,1.2c0.7,0.1,1.5,0,2.2-0.2c0.9-0.1,1.7-0.4,2.4-0.8c-0.3-0.6-0.3-1.3-0.1-2c0.2-0.7,0.8-1.2,1.6-1.2&#10;&#9;&#9;c0.2,0,0.4,0.1,0.5,0.3c0.4,1.1,0.2,2.3-0.6,3.1c1,0.6,2.2,0.8,3.4,0.6c0.3,0,2-0.1,2-1c0-0.3,0.3-0.5,0.5-0.5&#10;&#9;&#9;c0.3,0,0.5,0.3,0.5,0.5c0,0,0,0,0,0c-0.1,1.1-1.2,1.8-3,1.9c-1.5,0.1-3.1,0.1-4.2-0.9c-0.9,0.5-1.8,0.8-2.8,1&#10;&#9;&#9;c-0.9,0.3-1.8,0.3-2.7,0.2c-0.7-0.2-1.3-0.6-1.7-1.3c-1.4,0.9-3.2,0.8-4.5-0.3l-0.8,1.9C115.3,83.3,115.1,83.5,114.9,83.5z&#10;&#9;&#9; M128.4,78.8c-0.1,0.1-0.3,0.3-0.3,0.4c-0.1,0.3-0.1,0.6-0.1,0.9C128.3,79.8,128.4,79.3,128.4,78.8z"/>
	<path class="st1_scientist-4" d="M135.1,68.4c-0.2,0-0.4-0.1-0.5-0.3c-0.4-1.3-0.5-2.7-0.3-4l0.6-11.9c0-0.3,0.3-0.5,0.5-0.5&#10;&#9;&#9;c0.3,0,0.5,0.2,0.5,0.5c0,0,0,0,0,0l-0.6,11.9c-0.1,1.2,0,2.4,0.3,3.6c0.1,0.3-0.1,0.5-0.3,0.6C135.2,68.4,135.1,68.4,135.1,68.4z"/>
	<path class="st1_scientist-4" d="M142.4,69.2L142.4,69.2c-1.2-0.2-1.8-1.5-1.6-3.4c0.6-4.4,0.7-8.9,0.3-13.3c0-0.3,0.2-0.5,0.5-0.5&#10;&#9;&#9;c0.3,0,0.5,0.2,0.5,0.5c0.4,4.5,0.2,9.1-0.3,13.6c0,0.2-0.2,2.1,0.6,2.3c0.3,0,0.5,0.3,0.5,0.5S142.6,69.3,142.4,69.2L142.4,69.2z"/>
	<path class="st1_scientist-4" d="M139.2,58.9c-3.2,0-6.4-0.1-9.6-0.4c-0.3,0-0.5-0.3-0.5-0.5c0-0.3,0.3-0.5,0.5-0.5c5.3,0.4,10.6,0.5,15.9,0.2&#10;&#9;&#9;c0.3,0,0.5,0.2,0.5,0.4c0,0,0,0,0,0c0,0.3-0.2,0.5-0.5,0.5C143.5,58.8,141.4,58.9,139.2,58.9z"/>
	<path class="st1_scientist-4" d="M136.9,64c-0.3,0-0.5-0.2-0.5-0.5c0-0.1,0-0.2,0.1-0.3l1.9-2.5c0.2-0.2,0.5-0.3,0.7-0.1&#10;&#9;&#9;c0.2,0.2,0.3,0.5,0.1,0.7l-1.9,2.5C137.2,63.9,137,64,136.9,64z"/>
	<path class="st1_scientist-4" d="M131.4,65.3c-0.1,0-0.1,0-0.2,0c-1.1-0.5-1.9-1.6-2.2-2.8c-0.1-0.3,0.1-0.5,0.4-0.6c0,0,0,0,0,0&#10;&#9;&#9;c0.3,0,0.5,0.1,0.6,0.4c0.2,0.9,0.8,1.6,1.6,2c0.3,0.1,0.4,0.4,0.2,0.7c0,0,0,0,0,0C131.7,65.2,131.6,65.3,131.4,65.3z"/>
	<path class="st1_scientist-4" d="M144.6,65.6c-0.3,0-0.5-0.2-0.5-0.5v-1.9c0-0.3,0.2-0.5,0.5-0.5s0.5,0.2,0.5,0.5v1.9&#10;&#9;&#9;C145.1,65.4,144.8,65.6,144.6,65.6z"/>
	<path class="st1_scientist-4" d="M127.2,88.2c-0.5,0-0.9-0.1-1.4-0.2c-0.5-0.1-1.1-0.3-1.6-0.5c-1-0.5-2.1-0.6-3.1-0.4l-0.2,0.1&#10;&#9;&#9;c-0.4,0.2-0.8,0.3-1.3,0.1c-0.3-0.1-0.5-0.3-0.7-0.6c0-0.1-0.1-0.1-0.2-0.2c-0.5-0.5-1.4-0.5-1.9,0.1c-0.1,0.1-0.2,0.2-0.2,0.3&#10;&#9;&#9;c-0.1,0.2-0.3,0.3-0.5,0.2c-0.2-0.1-0.3-0.3-0.2-0.5c0,0,0,0,0,0c0.3-0.6,0.9-1.1,1.5-1.2c0.7-0.1,1.4,0.1,1.9,0.6&#10;&#9;&#9;c0.1,0.1,0.1,0.2,0.2,0.2c0.1,0.1,0.2,0.3,0.3,0.4c0.2,0.1,0.4,0,0.7-0.1l0.2-0.1c1.2-0.3,2.5-0.2,3.6,0.4c0.5,0.2,1,0.3,1.5,0.5&#10;&#9;&#9;c1.5,0.2,3.1,0.1,4.6-0.4l5-1.2c0.2-0.1,0.4,0.1,0.5,0.3c0,0,0,0,0,0c0,0.2-0.1,0.4-0.3,0.4l-5,1.2&#10;&#9;&#9;C129.6,87.9,128.4,88.1,127.2,88.2z"/>
	<path class="st1_scientist-4" d="M149.8,84.8c-0.1,0-0.2,0-0.2-0.1c-1.4-1-3.2-1.2-4.7-0.4c-0.2,0.1-0.4,0-0.5-0.1c-0.1-0.2,0-0.4,0.1-0.5&#10;&#9;&#9;c1.7-0.9,3.8-0.8,5.4,0.3l2.1-0.3c0.2,0,0.4,0.1,0.4,0.3c0,0,0,0,0,0c0,0.2-0.1,0.4-0.3,0.4L149.8,84.8L149.8,84.8z"/>
</g>
<g id="Plant_scientist-4">
	<path class="st2_scientist-4" d="M113.6,218.3c0.1-1.6-0.2-3.1-1-4.5c-0.6-1-1.5-1.8-2-2.9c-0.9-1.8-0.3-4-0.5-6c-0.2-1.7-0.9-3.3-2.1-4.5&#10;&#9;&#9;c-1-1.1-2.4-1.8-3.4-2.9c-1.7-1.8-2.1-4.4-3.1-6.7c-1.3-3.2-3.6-6-6.6-7.8c1.8,3.6-2.3,8.2-0.4,11.8c0.6,1.1,1.7,2,2.2,3.2&#10;&#9;&#9;c1.1,2.9-2.4,6.1-1.3,9c0.6,1.4,2.1,2.3,2.8,3.7c1,1.8,0.2,4.1,0.3,6.2c0.1,2.9,1.9,5.4,3.9,7.4c1.3,1.2,2.7,2.3,4.1,3.4&#10;&#9;&#9;c1.7,1.3,2.4,2.8,3.9,0.6C112.4,225.4,113.5,221.9,113.6,218.3z"/>
	<path class="st2_scientist-4" d="M115.5,220c-0.5-2.2-0.9-4.6,0-6.8c1-2.4,3.6-4.1,3.9-6.6c0.2-1.7-0.7-3.4-0.3-5.1s1.7-2.8,2.8-4&#10;&#9;&#9;c2.6-2.8,4.1-6.5,4.3-10.3c1.7,2.1,3.1,4.4,4.1,6.9c1,2.5,0.8,5.4-0.6,7.7c-0.4,0.5-0.8,1.1-1,1.7c-0.5,1.6,0.9,3.2,1.6,4.7&#10;&#9;&#9;c0.9,1.8,0.7,4-0.5,5.6c-1.5,1.8-4.3,2.6-5,4.8c-0.2,0.8-0.3,1.7-0.2,2.5c-0.3,3-2.4,5.6-5.4,6.4c-1.7,0.4-1.7-0.3-2-1.7&#10;&#9;&#9;C116.7,223.8,116,221.9,115.5,220z"/>
	<path class="st2_scientist-4" d="M109.9,203.9c-1.2-4.3-1.7-8.8-3-13c-1.1-3.3-2.4-6.6-4-9.7l5.3,2.2c1.7,0.7,3.6,1.6,4.3,3.2&#10;&#9;&#9;c1.4,2.9-1.1,6.6,0.4,9.5c0.6,0.9,1.3,1.8,2.1,2.6c1.6,2.2,1.3,5.2,0.5,7.8c-0.4,1.1-2,6.8-3.4,5.2c-0.6-0.6-0.6-3-0.9-3.9&#10;&#9;&#9;C110.8,206.6,110.3,205.3,109.9,203.9z"/>
	<path class="st2_scientist-4" d="M112.8,260.8c-1.1-7-4.4-31.7-4.4-31.9l1-0.1c0,0.2,3.3,24.9,4.4,31.9L112.8,260.8z"/>
	<path class="st2_scientist-4" d="M114.1,267.4h-1c0.1-8.3,3.5-40.1,5.5-42.3l0.7,0.7C117.9,227.5,114.2,258.2,114.1,267.4z"/>
	<path class="st2_scientist-4" d="M115.9,265.8h-1c0.8-17.9-3-55.5-3-55.9l1-0.1C112.9,210.2,116.7,247.9,115.9,265.8z"/>
	<path class="st0_scientist-4" d="M103.7,240.8h19.8l-1.4,22.5c-0.2,3.9-3.1,6.9-6.6,6.9h-3.8c-3.5,0-6.3-3-6.6-6.9L103.7,240.8z"/>
	<path class="st2_scientist-4" d="M115.5,270.6h-3.8c-3.7,0-6.8-3.2-7.1-7.4l-1.4-22.4c0-0.1,0-0.3,0.1-0.4c0.1-0.1,0.2-0.2,0.4-0.2h19.8&#10;&#9;&#9;c0.1,0,0.3,0.1,0.4,0.2c0.1,0.1,0.1,0.2,0.1,0.4l-1.4,22.4C122.4,267.4,119.3,270.6,115.5,270.6z M104.3,241.3l1.3,21.9&#10;&#9;&#9;c0.2,3.6,2.9,6.4,6.1,6.4h3.8c3.2,0,5.8-2.8,6.1-6.4l1.3-21.9H104.3z"/>
</g>
<g id="Character_scientist-4">
	<path class="st3_scientist-4 targetColor" d="M256.5,77.1c0,0,9.5,36.2,10.7,35.7s6.9-9.9,6.9-9.9l3.1,21c0,0-4.3,14.7-14.8,15.4&#10;&#9;&#9;c-7.3,0.4-10.6-16.8-10.4-20.6S256.5,77.1,256.5,77.1z" style="fill: rgb(225, 29, 72);"/>
	<path class="st0_scientist-4" d="M271.2,121.1c0.5,0.6,1.1,1,1.8,1.4c6.5,3.3,13.7-4,12.4-10.5c-0.8-4-4.3-6.9-8.4-6.9&#10;&#9;&#9;c-2.7,0.1-6.2,1.3-7.5,3.9c-0.5,1.3-0.8,2.6-0.8,4c-0.1,1.8,0.2,3.7,0.8,5.4C269.9,119.4,270.5,120.3,271.2,121.1z"/>
	<path class="st2_scientist-4" d="M276.4,123.7c-1.3,0-2.5-0.3-3.6-0.9c-0.7-0.4-1.4-0.9-1.9-1.4l0,0c-0.8-0.8-1.4-1.8-1.8-2.8&#10;&#9;&#9;c-0.7-1.8-0.9-3.7-0.8-5.6c0-1.4,0.3-2.9,0.9-4.2c1.3-2.7,5-4,7.9-4.2c4.3,0,8,3,8.9,7.2c0.6,3.8-1,7.7-4.1,10&#10;&#9;&#9;C280.2,123.1,278.3,123.7,276.4,123.7z M277.3,105.6H277c-2.6,0.1-6,1.3-7.1,3.7c-0.5,1.2-0.8,2.5-0.8,3.8&#10;&#9;&#9;c-0.1,1.8,0.2,3.5,0.8,5.2c0.4,0.9,0.9,1.8,1.6,2.6l0,0c0.5,0.5,1.1,0.9,1.7,1.3c2.6,1.3,5.7,0.9,7.9-0.9c2.8-2.1,4.3-5.5,3.8-9&#10;&#9;&#9;C284.2,108.4,281,105.7,277.3,105.6z"/>
	<path class="st0_scientist-4" d="M279.4,96.4h-7.7c-0.6,0-1.1,0.5-1.1,1.1s0.5,1.1,1.1,1.1h0.3v31.2c0,2,1.6,3.6,3.6,3.6s3.6-1.6,3.6-3.6V98.6&#10;&#9;&#9;h0.3c0.6,0,1.1-0.5,1.1-1.1S280,96.4,279.4,96.4z"/>
	<path class="st2_scientist-4" d="M275.6,133.9c-2.2,0-4-1.8-4-4V99.1c-0.9-0.1-1.4-0.9-1.3-1.8c0.1-0.7,0.7-1.3,1.5-1.3h7.7&#10;&#9;&#9;c0.9,0,1.5,0.8,1.5,1.6c0,0.7-0.6,1.4-1.3,1.5v30.8C279.6,132.1,277.9,133.9,275.6,133.9C275.6,133.9,275.6,133.9,275.6,133.9z&#10;&#9;&#9; M271.7,96.9c-0.4,0-0.6,0.3-0.6,0.7s0.3,0.7,0.6,0.7h0.3c0.3,0,0.5,0.2,0.5,0.5v31.2c0,1.7,1.4,3.1,3.1,3.1c1.7,0,3.1-1.4,3.1-3.1&#10;&#9;&#9;V98.6c0-0.3,0.2-0.5,0.5-0.5h0.3c0.4,0,0.6-0.3,0.6-0.7s-0.3-0.7-0.6-0.7L271.7,96.9z"/>
	<path class="st0_scientist-4" d="M250.3,46c1.1,3.5,1.8,7.1,2.2,10.7c0.3,2.2,1.6,7.3-0.6,8.6c-2.9,1.7-7.1,2.4-10.4,3.2&#10;&#9;&#9;c-3.4,0.7-6.9,1.3-10.4,1.7c-3.7,0.4-18.8,1.7-19.9,1.1c0.4-6,0.4-12.2,1-18.2s2.5-12.4,7.2-16.2c2.1-1.7,4.9-2.8,7.5-2&#10;&#9;&#9;c6.4-3.9,14.7-2.5,19.6,3.2C248.3,40.4,249.6,43.1,250.3,46z"/>
	<path class="st2_scientist-4" d="M213.2,71.8c-0.7,0.1-1.5,0-2.2-0.2c-0.2-0.1-0.3-0.3-0.2-0.4c0.1-2.3,0.2-4.7,0.3-7c0.1-3.7,0.3-7.5,0.6-11.2&#10;&#9;&#9;c0.5-5.2,2.2-12.3,7.4-16.6c2.5-2,5.4-2.8,7.8-2.2c6.6-3.9,15.1-2.4,20.1,3.5c1.8,2.5,3.1,5.2,3.9,8.1l0,0&#10;&#9;&#9;c1.1,3.5,1.8,7.1,2.2,10.8c0,0.4,0.1,0.8,0.2,1.3c0.4,2.6,1,6.5-1.1,7.7c-2.6,1.5-6,2.2-9.1,2.9c-0.5,0.1-1,0.2-1.5,0.3&#10;&#9;&#9;c-3.4,0.7-6.9,1.3-10.4,1.7C229.7,70.7,218.2,71.8,213.2,71.8z M211.7,70.8c2.2,0.3,14.5-0.7,19.4-1.2c3.5-0.4,6.9-0.9,10.3-1.6&#10;&#9;&#9;l1.5-0.3c3-0.6,6.4-1.3,8.8-2.8c1.6-0.9,1-4.5,0.6-6.8c-0.1-0.5-0.1-1-0.2-1.3c-0.4-3.6-1.2-7.2-2.2-10.7l0,0&#10;&#9;&#9;c-0.8-2.8-2-5.5-3.7-7.8c-4.7-5.6-12.8-6.9-19-3.2c-0.1,0.1-0.3,0.1-0.4,0c-2.1-0.7-4.8,0-7.1,1.9c-5,4-6.6,10.9-7,15.9&#10;&#9;&#9;c-0.4,3.7-0.5,7.5-0.6,11.2C211.9,66.4,211.8,68.6,211.7,70.8L211.7,70.8z"/>
	<path class="st0_scientist-4" d="M253.7,215.8l-1.5,62.5c0,0-30.7,4.1-31.5,2.9s17.1-10.7,17.1-10.7l-0.6-51.5"/>
	<path class="st2_scientist-4" d="M222.7,281.9c-1.4,0-2.2-0.1-2.4-0.3c-0.1-0.2-0.1-0.4-0.1-0.5c0.4-1.6,11.9-8,17.1-10.8l-0.6-51.3&#10;&#9;&#9;c0-0.3,0.2-0.5,0.5-0.5c0.3,0,0.5,0.2,0.5,0.5c0,0,0,0,0,0l0.6,51.6c0,0.2-0.1,0.4-0.3,0.5c-7.3,3.9-15,8.5-16.6,10&#10;&#9;&#9;c3.1,0.2,19.6-1.7,30.2-3.1l1.5-62.1c0-0.3,0.2-0.5,0.5-0.5c0.3,0,0.5,0.2,0.5,0.5l-1.5,62.5c0,0.2-0.2,0.5-0.4,0.5&#10;&#9;&#9;C236.8,280.9,226.9,281.9,222.7,281.9z"/>
	<path class="st2_scientist-4" d="M231.5,271.9l5.7,5l16.2-2.4l0.1,6.4c0,0-35.7,5.1-37.4,2.1S231.5,271.9,231.5,271.9z"/>
	<path class="st0_scientist-4" d="M224.3,216.1L214,270.9c0,0-30.9,2.6-31.6,1.4s17.6-9.9,17.6-9.9l5.6-52.7"/>
	<path class="st2_scientist-4" d="M186.4,273.1c-2.7,0-4.1-0.2-4.4-0.5c-0.1-0.2-0.1-0.4-0.1-0.5c0.5-1.6,12.3-7.4,17.6-10l5.6-52.4&#10;&#9;&#9;c0-0.3,0.3-0.5,0.5-0.4c0,0,0,0,0,0c0.3,0,0.5,0.3,0.5,0.5c0,0,0,0,0,0l-5.6,52.7c0,0.2-0.1,0.3-0.3,0.4&#10;&#9;&#9;c-7.5,3.6-15.4,7.8-17.1,9.2c3.1,0.4,19.7-0.7,30.4-1.6l10.2-54.4c0.1-0.3,0.3-0.4,0.6-0.4c0.3,0.1,0.4,0.3,0.4,0.6L214.5,271&#10;&#9;&#9;c0,0.2-0.2,0.4-0.4,0.4C200.6,272.5,191.4,273.1,186.4,273.1z"/>
	<path class="st2_scientist-4" d="M193.6,263.5l5.4,5.3l16.3-1.6l-0.2,6.4c0,0-35.9,3.4-37.4,0.3S193.6,263.5,193.6,263.5z"/>
	<path class="st2_scientist-4" d="M252.7,135.6c0,0.6,0.7,7.6,0.4,19.4c-0.9,35.4-2.5,68.1-2.5,68.1l-50.9-2.1c0,0-16-39.4,5.5-89.3L252.7,135.6&#10;&#9;&#9;z"/>
	<polygon class="st0_scientist-4" points="210,136 218.3,78.2 247.2,75.4 243.8,138.9 &#9;"/>
	<path class="st2_scientist-4" d="M243.8,139.3L243.8,139.3l-33.8-2.9c-0.2,0-0.4-0.2-0.4-0.5c0,0,0,0,0,0l8.3-57.8c0-0.2,0.2-0.4,0.4-0.4&#10;&#9;&#9;l28.9-2.8c0.1,0,0.3,0,0.4,0.1c0.1,0.1,0.1,0.2,0.1,0.3l-3.4,63.5c0,0.1-0.1,0.2-0.1,0.3C244.1,139.3,243.9,139.3,243.8,139.3z&#10;&#9;&#9; M210.5,135.6l32.9,2.8l3.3-62.5l-28,2.8L210.5,135.6z"/>
	<path class="st3_scientist-4 targetColor" d="M257.7,120.2l14.4,107.4l-38.8,4.1l6.9-153.5l-16.7-0.7c0,0.6-7.6,139.6-9.3,153.5l-32.2-3.8&#10;&#9;&#9;c0,0,8.2-44.6,13.8-69.2s9.7-49.8,9.7-49.8s-3.6-22.8,1.5-31.6c2.6-4.4,8.9-4.5,16.6-4.1c21.3,1.2,30.7-6.3,33.4,6.1&#10;&#9;&#9;C259.3,89.8,257.7,120.2,257.7,120.2z" style="fill: rgb(225, 29, 72);"/>
	<path class="st0_scientist-4" d="M223.8,69.4l-0.7,10.5c0,0,0.6,6,7.2,4.7c3.9-0.8,7.3-3.3,9.2-6.9c0.1-0.6,0.1-1.1,0.1-1.7l0.2-4.5&#10;&#9;&#9;c0.2-4.7,0.3-21.4,0.3-21.4s-1.6,0.4-2.2,0.4c-0.9,0.1-1.8,0-2.6-0.3c-1.5-0.6-3-1.4-4.2-2.5c-1.6-1.1-2.9-2.4-4-4&#10;&#9;&#9;c-3.1,5.5-9.7,6.5-9.7,6.5s-1.2,11.5,1,14.8C220.9,68.9,223.8,69.4,223.8,69.4z"/>
	<path class="st2_scientist-4" d="M228.5,85.3c-1.3,0-2.5-0.3-3.5-1.1c-1.3-1-2.1-2.5-2.4-4.2c0.5-7.1,0.6-9.4,0.7-10.2&#10;&#9;&#9;c-2.2-0.8-4.1-2.3-5.3-4.4c-2.3-3.4-1.2-14.6-1.1-15.1c0-0.2,0.2-0.4,0.4-0.4c0.1,0,6.4-1,9.3-6.3c0.1-0.1,0.2-0.2,0.4-0.2l0,0&#10;&#9;&#9;c0.2,0,0.3,0.1,0.4,0.2c1,1.5,2.3,2.8,3.9,3.9c1.2,1,2.6,1.9,4.1,2.4c0.8,0.3,1.6,0.3,2.4,0.2c0.6-0.1,2.2-0.4,2.2-0.4&#10;&#9;&#9;c0.1,0,0.3,0,0.4,0.1c0.1,0.1,0.2,0.2,0.2,0.4c0,0.2-0.1,16.8-0.3,21.4l-0.2,4.5c0,0.1,0,0.3,0,0.4c0.1,0.5,0,1-0.1,1.4&#10;&#9;&#9;c-1.9,3.7-5.4,6.3-9.5,7.2C229.8,85.2,229.1,85.3,228.5,85.3z M223.5,79.9c0.3,2.7,2.7,4.8,5.4,4.5c0.4,0,0.8-0.1,1.2-0.3&#10;&#9;&#9;c3.8-0.8,7-3.2,8.8-6.6c0.1-0.3,0.1-0.7,0.1-1c0-0.2,0-0.4,0-0.5l0.2-4.5c0.2-4.1,0.3-17.8,0.3-20.8c-0.5,0.1-1.3,0.3-1.7,0.3&#10;&#9;&#9;c-1,0.1-1.9,0-2.8-0.3c-1.6-0.6-3.1-1.5-4.4-2.6c-1.4-1-2.6-2.2-3.7-3.5c-2.2,3.1-5.5,5.3-9.3,6c-0.2,1.9-0.9,11.3,1,14.2&#10;&#9;&#9;c2.4,3.6,5.1,4,5.1,4c0.2,0,0.4,0.2,0.4,0.5C224.2,69.5,223.6,79.8,223.5,79.9L223.5,79.9z"/>
	<path class="st0_scientist-4" d="M238.8,57.4c0.2-0.8,0.7-1.4,1.4-1.9c0.6-0.4,1.3-0.7,2-0.9c0.4-0.1,0.8-0.2,1.2-0.2c0.3,0.1,0.6,0.2,0.8,0.3&#10;&#9;&#9;c0.6,0.3,1.1,0.9,1.3,1.5c0.1,0.5,0.1,1.1,0,1.6c-0.1,0.6-0.3,1.2-0.5,1.7c-1.1,2.2-3.8,3.2-6,2.1c0,0,0,0-0.1,0"/>
	<path class="st2_scientist-4" d="M240.9,62.5c-0.8,0-1.5-0.2-2.2-0.5c-0.2-0.1-0.3-0.3-0.2-0.5c0.1-0.2,0.3-0.3,0.5-0.2c2,1,4.5,0.2,5.5-1.8&#10;&#9;&#9;c0,0,0,0,0-0.1c0.2-0.5,0.4-1.1,0.4-1.6c0.1-0.5,0.1-1,0-1.4c-0.2-0.5-0.6-1-1.1-1.3c-0.2-0.1-0.4-0.2-0.6-0.3c-0.3,0-0.7,0-1,0.2&#10;&#9;&#9;c-0.7,0.2-1.3,0.5-1.9,0.8c-0.6,0.4-1,1-1.2,1.7c-0.1,0.2-0.3,0.3-0.5,0.3c-0.2-0.1-0.3-0.3-0.3-0.5c0.3-0.9,0.8-1.6,1.5-2.1&#10;&#9;&#9;c0.7-0.5,1.4-0.8,2.2-1c0.5-0.2,0.9-0.2,1.4-0.2c0.3,0.1,0.7,0.2,0.9,0.4c0.7,0.4,1.2,1,1.5,1.7c0.1,0.6,0.1,1.2,0,1.8&#10;&#9;&#9;c-0.1,0.6-0.3,1.2-0.6,1.8c-0.6,1.2-1.6,2.1-2.8,2.5C241.9,62.4,241.4,62.5,240.9,62.5z"/>
	<path class="st2_scientist-4" d="M223.7,73.5c0,0,4.2,1.5,7.2-1.1c1.7-1.4,2.7-3.4,2.8-5.6c0,0-5.7,3.8-10,2.7L223.7,73.5z"/>
	<path class="st2_scientist-4" d="M226.5,74.4c-1,0-2-0.2-3-0.5c-0.2-0.1-0.3-0.2-0.3-0.4l0.1-4c0-0.1,0.1-0.3,0.2-0.3c0.1-0.1,0.2-0.1,0.4-0.1&#10;&#9;&#9;c4,1,9.6-2.6,9.6-2.6c0.1-0.1,0.3-0.1,0.4,0c0.1,0.1,0.2,0.2,0.2,0.4c-0.1,2.3-1.2,4.5-3,5.9C229.9,73.9,228.2,74.5,226.5,74.4z&#10;&#9;&#9; M224.1,73.2c1,0.3,4.2,0.9,6.5-1.1c1.4-1.1,2.3-2.7,2.6-4.4c-1.6,0.9-5.6,3-9,2.4L224.1,73.2z"/>
	<path class="st0_scientist-4" d="M223.3,52.7c0,0-3.8,4.8-3.1,5.8s3,0.5,3,0.5"/>
	<path class="st2_scientist-4" d="M222.2,59.5c-0.9,0.1-1.7-0.2-2.3-0.8c-0.8-1.1,1.6-4.4,3.1-6.3c0.2-0.2,0.4-0.2,0.6-0.1&#10;&#9;&#9;c0.2,0.2,0.2,0.4,0.1,0.6l0,0c-1.8,2.3-3.3,4.7-3.1,5.2c0.4,0.5,1.8,0.5,2.6,0.4c0.2,0,0.5,0.1,0.5,0.4c0,0.2-0.1,0.5-0.4,0.5&#10;&#9;&#9;C223,59.5,222.6,59.6,222.2,59.5z"/>
	
		<ellipse transform="matrix(0.2909 -0.9568 0.9568 0.2909 111.2156 256.9449)" class="st2_scientist-4" cx="228.9" cy="53.4" rx="1.2" ry="0.8"/>
	
		<ellipse transform="matrix(0.2909 -0.9568 0.9568 0.2909 105.1303 247.6211)" class="st2_scientist-4" cx="219.6" cy="52.9" rx="1.2" ry="0.8"/>
	<path class="st0_scientist-4" d="M219,61.2c0,0,2.7,4.8,8.4,0.9"/>
	<path class="st2_scientist-4" d="M223.1,64.1c-0.4,0-0.8,0-1.1-0.1c-1.4-0.4-2.6-1.3-3.4-2.5c-0.1-0.2,0-0.5,0.2-0.6c0,0,0,0,0,0&#10;&#9;&#9;c0.2-0.1,0.5-0.1,0.6,0.2c0.6,1,1.6,1.8,2.8,2.1c1.8,0.3,3.6-0.2,5-1.3c0.2-0.1,0.5-0.1,0.6,0.1c0,0,0,0,0,0&#10;&#9;&#9;c0.1,0.2,0.1,0.5-0.1,0.6C226.4,63.5,224.8,64,223.1,64.1z"/>
	<path class="st2_scientist-4" d="M219.9,109.4c-0.2,0-0.4-0.1-0.4-0.3c-0.2-0.6-6-15.4-6.3-16.3s2.3-3.8,4.8-6.1c-1.1-1-4.5-4.2-5.3-5&#10;&#9;&#9;c-0.2-0.2-0.2-0.4-0.2-0.6c0.1-1.5,4.8-5.5,6.2-6.6c0.2-0.2,0.5-0.1,0.6,0.1c0.2,0.2,0.1,0.5-0.1,0.7c-2.8,2.3-5.8,5.2-5.9,5.9&#10;&#9;&#9;c1,1,5.5,5.2,5.6,5.3c0.1,0.1,0.2,0.2,0.1,0.3c0,0.1,0,0.2-0.1,0.3c-2.3,2.2-4.8,4.9-4.9,5.5c0.3,0.9,6.2,16,6.2,16.2&#10;&#9;&#9;c0.1,0.2,0,0.5-0.2,0.6C220,109.3,219.9,109.4,219.9,109.4L219.9,109.4z"/>
	<path class="st2_scientist-4" d="M240.8,108.4c-0.1,0-0.1,0-0.2-0.1c-0.2-0.1-0.3-0.4-0.2-0.6c0,0,0,0,0,0c3.5-6.7,8.8-16.9,9-17.8&#10;&#9;&#9;c0-0.5-2.4-2.1-5.1-3.2c-0.2-0.1-0.3-0.4-0.2-0.6c0-0.1,0.1-0.1,0.1-0.2c0,0,4.7-3.4,5.9-4.4c0-0.6-2.9-3-6.2-5.2&#10;&#9;&#9;c-0.2-0.2-0.2-0.5-0.1-0.6c0.1-0.2,0.4-0.2,0.6-0.1c1.5,1,6.6,4.5,6.6,6c0,0.3-0.1,0.5-0.3,0.7c-1,0.7-4,3-5.3,3.9&#10;&#9;&#9;c2.2,1,5.2,2.7,4.9,4s-8.2,16.2-9.1,18C241.1,108.4,241,108.4,240.8,108.4z"/>
	<path class="st2_scientist-4" d="M227.6,59.2c-2.9,0-5-3-5.8-4.2c-1,0.9-3.3,2.8-5.8,2.8c-0.6,0-1.2-0.3-1.6-0.8c-1.4-1.7-0.8-5.9-0.7-6.1&#10;&#9;&#9;c0-0.2,0.2-0.4,0.5-0.4l18.7,1.2c0.1,0,0.2,0.1,0.3,0.2c0.1,0.1,0.1,0.2,0.1,0.3c0,0.2-0.8,6.1-4.8,7&#10;&#9;&#9;C228.2,59.1,227.9,59.2,227.6,59.2z M221.9,53.8L221.9,53.8c0.2,0,0.3,0.1,0.4,0.2c0,0,2.6,4.9,6,4.2c2.8-0.6,3.8-4.4,4-5.7&#10;&#9;&#9;l-17.8-1.1c-0.2,1.3-0.3,3.9,0.6,5c0.2,0.3,0.6,0.4,0.9,0.5c2.6,0.1,5.5-2.8,5.5-2.9C221.7,53.8,221.8,53.8,221.9,53.8L221.9,53.8z&#10;&#9;&#9;"/>
	<path class="st3_scientist-4 targetColor" d="M208.6,74.2c0,0-23.2,36-25.1,34.1s-6.4-21.9-6.4-21.9l-16.8,3.4c0,0,2.8,45.4,12.8,46.3s36.9-26,36.9-26&#10;&#9;&#9;L208.6,74.2z" style="fill: rgb(225, 29, 72);"/>
	<path class="st3_scientist-4 targetColor" d="M273.8,101.9h3.6l0,0v27.5c0,1-0.8,1.8-1.8,1.8l0,0c-1,0-1.8-0.8-1.8-1.8V101.9L273.8,101.9z" style="fill: rgb(225, 29, 72);"/>
	<path class="st0_scientist-4" d="M270.5,104.5c-0.2-0.1-0.3-0.2-0.5-0.3c-0.8-0.3-1.7,0-2,0.8c0,0,0,0,0,0c-0.3,0.7-0.3,1.6,0,2.3&#10;&#9;&#9;c0.5,1.7,1.4,3.3,2.6,4.5c1,1,2.8,1.5,3.8,0c0.4-0.7,0.5-1.5,0.3-2.3c-0.3-0.8-0.6-1.5-1.2-2.1c-0.8-1-1.6-1.9-2.5-2.7&#10;&#9;&#9;C270.8,104.7,270.7,104.6,270.5,104.5z"/>
	<path class="st2_scientist-4" d="M272.7,113.3c-0.9,0-1.8-0.4-2.4-1.1c-1.3-1.3-2.3-2.9-2.8-4.7c-0.3-0.8-0.3-1.8,0-2.6c0.4-1,1.6-1.5,2.6-1.1&#10;&#9;&#9;c0,0,0,0,0.1,0c0.2,0.1,0.5,0.2,0.7,0.4l0,0l0.5,0.4c0.9,0.8,1.8,1.8,2.6,2.8c0.5,0.7,1,1.4,1.2,2.2c0.3,0.9,0.2,1.9-0.3,2.7&#10;&#9;&#9;c-0.4,0.6-1.1,1-1.8,1.1L272.7,113.3z M269.4,104.5c-0.4,0-0.8,0.3-1,0.7c-0.2,0.7-0.2,1.4,0,2c0.4,1.6,1.3,3.1,2.5,4.3&#10;&#9;&#9;c0.5,0.5,1.2,0.8,1.9,0.8c0.5,0,0.9-0.3,1.1-0.7c0.3-0.6,0.4-1.3,0.2-1.9c-0.2-0.7-0.6-1.4-1.1-1.9c-0.7-1-1.6-1.8-2.5-2.6&#10;&#9;&#9;c-0.1-0.1-0.3-0.2-0.4-0.3c-0.1-0.1-0.3-0.2-0.4-0.2C269.7,104.6,269.5,104.5,269.4,104.5L269.4,104.5z"/>
	<path class="st0_scientist-4" d="M277.4,105.9c-0.2,0.2-0.3,0.3-0.5,0.5c-0.6,0.5-1,1.3-0.9,2.2c0.1,0.6,0.6,1,1.1,1.1c0.5,0.1,1,0,1.5-0.2&#10;&#9;&#9;c-0.8,0.3-1.5,0.7-2.2,1.1c-0.5,0.2-0.8,0.7-0.8,1.2c0,0.6,0.5,1.1,1.1,1.2c0.5,0,1,0,1.6,0.1c-1.1,0.3-2,1-2.7,1.8&#10;&#9;&#9;c-0.4,0.4-0.6,1-0.7,1.6c0,0.8,0.4,1.6,1.2,1.9c0.7,0.2,1.4,0.3,2.1,0.1c-0.9,0.1-1.7,0.6-2.1,1.4c-0.4,1.1-0.2,2.3,0.7,3.2&#10;&#9;&#9;c0.8,0.7,1.7,1,2.7,0.9c1.2,0,3.3,0,4.4-0.7c1.6-1,2-3.9,2.2-5.9c0.2-1.5,0.2-3.1,0.3-4.6c0.1-2.4-0.1-6.5-1.9-7.9&#10;&#9;&#9;C282,103.1,279.4,104.1,277.4,105.9z"/>
	<path class="st2_scientist-4" d="M279.3,124.4c-1.1,0.1-2.2-0.3-3-1c-1-1-1.3-2.4-0.8-3.7c0.1-0.3,0.3-0.6,0.6-0.8c-0.1,0-0.2-0.1-0.3-0.1&#10;&#9;&#9;c-0.9-0.4-1.5-1.4-1.5-2.4c0.1-0.7,0.3-1.3,0.8-1.8c0.4-0.5,0.8-0.9,1.2-1.2c-0.8-0.2-1.3-0.8-1.3-1.6c0.1-0.7,0.4-1.2,1-1.6&#10;&#9;&#9;l0.5-0.3c-0.5-0.3-0.9-0.7-1-1.3c-0.1-1,0.3-1.9,1-2.6c0.1-0.2,0.3-0.3,0.5-0.5l0,0c2.5-2.3,5.4-2.8,7.5-1.1&#10;&#9;&#9;c1.5,1.2,2.2,3.9,2.1,8.3c0,1.6-0.1,3.1-0.3,4.7c-0.2,2.4-0.7,5.2-2.5,6.2c-1.1,0.7-3.1,0.7-4.4,0.7h-0.3L279.3,124.4z M278.1,118&#10;&#9;&#9;c0.2,0,0.5,0.2,0.5,0.4c0,0.2-0.1,0.4-0.4,0.5c-0.7,0.1-1.4,0.5-1.8,1.2c-0.4,0.9-0.1,1.9,0.6,2.6c0.7,0.6,1.5,0.8,2.4,0.8h0.2&#10;&#9;&#9;c1.3,0.1,2.7-0.1,3.9-0.6c1.4-0.8,1.8-3.4,2-5.6c0.1-1.5,0.2-3.1,0.3-4.6c0.1-5-0.9-6.9-1.8-7.5c-2.6-2-5.3,0.1-6.3,1.1l-0.5,0.4&#10;&#9;&#9;c-0.5,0.4-0.8,1.1-0.8,1.8c0.1,0.4,0.4,0.7,0.8,0.8c0.4,0,0.9,0,1.3-0.2c0.2-0.1,0.5,0.1,0.6,0.3c0.1,0.2,0,0.5-0.3,0.6&#10;&#9;&#9;c-0.8,0.3-1.5,0.6-2.1,1.1c-0.4,0.3-0.6,0.6-0.6,0.8c0,0.4,0.3,0.7,0.7,0.7c0.2,0,0.4,0,0.6,0c0.3,0,0.7,0,1,0.1&#10;&#9;&#9;c0.2,0.1,0.3,0.2,0.3,0.4c0,0.2-0.1,0.4-0.3,0.4c-1,0.3-1.8,0.9-2.4,1.7c-0.3,0.4-0.5,0.8-0.6,1.3c0,0.6,0.4,1.2,0.9,1.5&#10;&#9;&#9;c0.6,0.2,1.2,0.2,1.8,0.1H278.1z"/>
	<path class="st2_scientist-4" d="M263.6,139.7c-3.1,0-6-2-8.6-6c-7.5-11.6-4.3-28.8-4.3-29c0-0.2,0.3-0.4,0.5-0.4c0,0,0,0,0,0&#10;&#9;&#9;c0.2,0,0.4,0.3,0.4,0.5c0,0,0,0,0,0c0,0.2-3.2,17,4.2,28.3c2.6,3.9,5.4,5.8,8.5,5.5c2.6-0.5,5-1.9,6.5-4.1c0.1-0.2,0.3-0.4,0.6-0.3&#10;&#9;&#9;c0.2,0.1,0.4,0.3,0.3,0.6c0,0,0,0,0,0c-1.6,2.5-4.2,4.2-7.1,4.7C264.2,139.6,263.9,139.7,263.6,139.7z"/>
	<path class="st2_scientist-4" d="M261.8,116.1c-0.2,0-0.3-0.1-0.4-0.2c-0.1-0.2-0.1-0.5,0.1-0.6l6.1-3.9c0.2-0.1,0.5-0.1,0.6,0.1c0,0,0,0,0,0&#10;&#9;&#9;c0.1,0.2,0.1,0.5-0.1,0.6L262,116C261.9,116.1,261.9,116.1,261.8,116.1z"/>
	<path class="st0_scientist-4" d="M162.7,88.2c-0.6-0.2-0.1-1-0.1-1.3c-0.7-3.7-2.9-7.8-3.6-11.4c-0.6-3.4-1.2-7,0.1-10.1&#10;&#9;&#9;c0.7-1.7,1.9-3.1,3.5-4.1c1.7-1.1,3.7-1.7,5.8-1.6c4.9,0.5,7.4,6.9,7.1,11.2c-0.3,2.1-0.7,4.3-1.3,6.3c-0.9,3.2-0.9,6.7-0.1,9.9"/>
	<path class="st2_scientist-4" d="M162.7,88.7c0,0-0.1,0-0.1,0c-0.8-0.2-0.6-1.1-0.5-1.4c0-0.1,0-0.1,0-0.2c-0.4-1.9-1-3.8-1.8-5.6&#10;&#9;&#9;c-0.8-1.9-1.4-3.8-1.8-5.8c-0.6-3.1-1.3-7,0.1-10.4c0.8-1.8,2-3.3,3.6-4.3c1.8-1.2,3.9-1.7,6.1-1.7c5.1,0.6,7.8,7.2,7.6,11.7&#10;&#9;&#9;c-0.1,1.5-0.4,3-0.8,4.4c-0.2,0.7-0.3,1.3-0.5,2c-0.9,3.2-0.9,6.5-0.1,9.7c0,0.3-0.1,0.5-0.4,0.5c-0.2,0-0.4-0.1-0.5-0.3&#10;&#9;&#9;c-0.8-3.3-0.8-6.8,0.1-10.1c0.1-0.7,0.3-1.3,0.5-2c0.4-1.4,0.7-2.8,0.8-4.2c0.3-4.1-2.2-10.2-6.7-10.7c-1.9-0.1-3.9,0.5-5.5,1.5&#10;&#9;&#9;c-1.5,0.9-2.6,2.3-3.3,3.9c-1.3,3.1-0.6,6.9-0.1,9.9c0.4,1.9,1,3.8,1.8,5.6c0.8,1.9,1.4,3.8,1.8,5.8c0,0.2,0,0.4-0.1,0.6&#10;&#9;&#9;c0,0.1-0.1,0.3-0.1,0.4c0.2,0.1,0.4,0.3,0.3,0.5c0,0,0,0,0,0C163.1,88.6,162.9,88.7,162.7,88.7z"/>
	<path class="st0_scientist-4" d="M169.9,48.3h-9.1c-0.7-0.1-1.4,0.5-1.4,1.2c-0.1,0.7,0.5,1.4,1.2,1.4c0.1,0,0.2,0,0.2,0h0.3V88&#10;&#9;&#9;c-0.1,2.3,1.7,4.3,4,4.4c2.3,0.1,4.3-1.7,4.4-4c0-0.1,0-0.3,0-0.4V50.9h0.3c0.7-0.1,1.3-0.7,1.2-1.4&#10;&#9;&#9;C171.1,48.8,170.6,48.3,169.9,48.3z"/>
	<path class="st2_scientist-4" d="M165.4,92.7c-2.6,0-4.7-2.1-4.7-4.7V51.3c-1,0-1.7-0.9-1.7-1.8c0-1,0.9-1.7,1.8-1.7h9.1c1,0,1.8,0.7,1.8,1.7&#10;&#9;&#9;c0,1-0.7,1.8-1.7,1.8l0,0V88C170,90.6,168,92.7,165.4,92.7z M160.8,48.7c-0.5-0.1-0.9,0.3-0.9,0.8s0.3,0.9,0.8,0.9&#10;&#9;&#9;c0.1,0,0.1,0,0.2,0h0.3c0.3,0,0.5,0.2,0.5,0.5V88c-0.1,2.1,1.5,3.9,3.6,4s3.9-1.5,4-3.6c0-0.1,0-0.3,0-0.4V50.9&#10;&#9;&#9;c0-0.3,0.2-0.5,0.5-0.5h0.3c0.5,0.1,0.9-0.3,0.9-0.8s-0.3-0.9-0.8-0.9c-0.1,0-0.1,0-0.2,0L160.8,48.7z"/>
	<path class="st3_scientist-4 targetColor" d="M163.2,54.7h4.3l0,0v32.6c0,1.2-1,2.2-2.1,2.2l0,0c-1.2,0-2.1-1-2.1-2.2L163.2,54.7L163.2,54.7L163.2,54.7z" style="fill: rgb(225, 29, 72);"/>
	<path class="st0_scientist-4" d="M164.1,61.3c0.3,0.4,0.3,0.9,0.1,1.3c-0.1,0.2-0.3,0.3-0.5,0.4c-0.7,0.3-1.5,0.4-2.2,0.4&#10;&#9;&#9;c1.5,0.4,3,1.2,4.1,2.3c0.3,0.3,0.5,0.6,0.6,1c0.1,1-0.6,1.8-1.5,2c-0.9,0.1-1.9,0-2.8-0.4c1.5,0.9,3.2,1.9,3.9,3.5&#10;&#9;&#9;c0.1,0.3,0.2,0.7,0.2,1c-0.2,0.7-0.8,1.1-1.5,1.2c-0.7,0-1.3-0.1-1.9-0.4c1.1,0.5,2.1,1.4,2.7,2.5c0.6,1.1,0.3,2.5-0.6,3.3&#10;&#9;&#9;c-0.7,0.4-1.6,0.5-2.4,0.3c-2.3-0.4-4.5-1.6-5.9-3.5c-0.6-0.7-1.5-2-1.4-3c0.1-0.7,1.4-2.2,2.2-1.7c-0.7-0.4-1.3-0.9-1.7-1.6&#10;&#9;&#9;c-0.9-1.5,0.5-2.5,1.7-3.1c-0.2,0.1-0.4,0-0.6-0.1c-1-0.6-1.5-1.7-1.2-2.8c0.4-0.7,1.1-1.3,1.9-1.6c-0.9,0.4-1.9-2.5-1.7-3.1&#10;&#9;&#9;c0.5-1.2,1.7-1.9,3-1.8C160.7,57.8,162.9,59.2,164.1,61.3z"/>
	<path class="st2_scientist-4" d="M163,80.2c-0.3,0-0.6,0-0.9-0.1c-2.5-0.4-4.7-1.7-6.2-3.6c-0.8-1-1.6-2.2-1.5-3.3c0.2-0.8,0.7-1.5,1.4-1.9&#10;&#9;&#9;c-0.4-0.3-0.7-0.7-0.9-1.1c-0.3-0.5-0.4-1.1-0.3-1.7c0.2-0.6,0.7-1.2,1.2-1.5c-1-0.7-1.5-2-1.1-3.2c0.3-0.6,0.7-1.1,1.3-1.4&#10;&#9;&#9;c-0.7-0.9-1.1-2.1-1.1-3.3c0.5-1.4,1.9-2.3,3.4-2.1c2.6,0.3,4.9,1.8,6.2,4l0,0c0.4,0.5,0.4,1.2,0.1,1.8c-0.2,0.2-0.5,0.4-0.8,0.5&#10;&#9;&#9;l-0.5,0.2c0.9,0.5,1.8,1.1,2.5,1.8c0.4,0.3,0.6,0.7,0.8,1.2c0.1,0.5,0,1-0.2,1.4c-0.4,0.6-0.9,1-1.6,1.2c-0.2,0-0.4,0.1-0.6,0.1&#10;&#9;&#9;c0.9,0.6,1.6,1.5,2,2.5c0.2,0.4,0.2,0.8,0.2,1.2c-0.2,0.9-0.9,1.5-1.8,1.5c0.4,0.4,0.8,0.9,1.1,1.4c0.8,1.4,0.4,3.1-1,3.9&#10;&#9;&#9;C164.1,80,163.6,80.2,163,80.2z M156.6,71.9c-0.1,0-0.2,0-0.2,0.1c-0.5,0.3-0.9,0.8-1.1,1.3c-0.1,0.8,0.9,2.1,1.3,2.6&#10;&#9;&#9;c1.4,1.8,3.4,2.9,5.6,3.3c0.7,0.2,1.4,0.1,2.1-0.3c0.8-0.7,1-1.8,0.5-2.7c-0.6-1-1.4-1.8-2.5-2.2c-0.2-0.1-0.3-0.4-0.1-0.6&#10;&#9;&#9;c0.1-0.2,0.3-0.2,0.5-0.2c0.5,0.3,1.1,0.4,1.7,0.4c0.5,0,0.9-0.3,1-0.8c0-0.3,0-0.5-0.1-0.7c-0.6-1.4-2-2.3-3.7-3.3&#10;&#9;&#9;c-0.2-0.1-0.3-0.4-0.2-0.6c0.1-0.2,0.3-0.3,0.6-0.2c0.8,0.3,1.7,0.5,2.5,0.4c0.4-0.1,0.8-0.4,1-0.8c0.1-0.2,0.2-0.5,0.1-0.7&#10;&#9;&#9;c-0.1-0.3-0.3-0.6-0.5-0.8c-1.1-1.1-2.4-1.8-3.9-2.2c-0.2-0.1-0.4-0.3-0.3-0.5c0-0.2,0.2-0.4,0.5-0.4c0.7,0,1.4-0.1,2.1-0.4&#10;&#9;&#9;c0.1,0,0.2-0.1,0.3-0.2c0.1-0.2,0-0.5-0.2-0.8l0,0c-1.2-1.9-3.2-3.2-5.5-3.5c-1.1-0.1-2.1,0.4-2.5,1.4c0.1,0.8,0.3,1.5,0.7,2.2&#10;&#9;&#9;c0.2,0.3,0.4,0.4,0.4,0.4c0.2-0.1,0.5,0,0.6,0.2c0,0,0,0,0,0c0.1,0.2,0,0.5-0.2,0.6c-0.7,0.2-1.3,0.7-1.7,1.3&#10;&#9;&#9;c-0.2,0.9,0.2,1.8,1,2.3c0,0,0.1,0.1,0.1,0.1l0,0c0.2-0.1,0.5,0,0.6,0.2c0.1,0.2,0,0.4-0.1,0.5c-0.1,0.1-0.1,0.1-0.2,0.1&#10;&#9;&#9;c-0.9,0.5-1.4,1-1.6,1.4c-0.1,0.3,0,0.7,0.2,0.9c0.4,0.6,1,1.1,1.6,1.4l0,0c0.2,0.1,0.3,0.4,0.1,0.6c0,0,0,0,0,0&#10;&#9;&#9;C157.1,72,156.8,72.1,156.6,71.9L156.6,71.9C156.6,71.9,156.6,71.9,156.6,71.9L156.6,71.9z"/>
	<path class="st0_scientist-4" d="M174.5,65.2c-1-1.7-2.3-3.2-3.7-4.5c-1.3-1.2-3.1-1.8-4.8-1.6c-0.2,0-0.3,0.1-0.4,0.2&#10;&#9;&#9;c-0.2,0.1-0.3,0.4-0.3,0.6c-0.1,0.8,0.6,1.4,1.2,2c2.1,2.2,3.6,5,4.3,8"/>
	<path class="st2_scientist-4" d="M170.7,70.4c-0.2,0-0.4-0.2-0.4-0.4c-0.7-2.9-2.2-5.6-4.2-7.8l-0.1-0.1c-0.7-0.5-1.1-1.4-1.2-2.2&#10;&#9;&#9;c0-0.4,0.2-0.7,0.5-1c0.2-0.1,0.4-0.2,0.6-0.2c1.9-0.2,3.8,0.4,5.2,1.7c1.5,1.4,2.7,2.9,3.8,4.6c0.1,0.2,0,0.5-0.2,0.6c0,0,0,0,0,0&#10;&#9;&#9;c-0.2,0.1-0.5,0-0.6-0.2c-1-1.6-2.2-3.1-3.6-4.4c-1.2-1.1-2.8-1.6-4.4-1.4c-0.1,0-0.2,0-0.2,0.1c-0.1,0.1-0.1,0.2-0.1,0.3&#10;&#9;&#9;c0,0.5,0.4,1,0.9,1.5l0.1,0.1c2.2,2.3,3.7,5.2,4.5,8.2C171.2,70.1,171,70.3,170.7,70.4L170.7,70.4z"/>
</g>
</svg>